<?xml version="1.0" encoding="utf-8"?>
<!-- Generator: Adobe Illustrator 21.0.2, SVG Export Plug-In . SVG Version: 6.00 Build 0)  -->
<svg version="1.1" xmlns="http://www.w3.org/2000/svg" xmlns:xlink="http://www.w3.org/1999/xlink" x="0px" y="0px"
	 viewBox="0 0 887 649" enable-background="new 0 0 887 649" xml:space="preserve">
<g id="BASE">
	<rect id="Draw_Background" x="52.7" y="49.1" fill="#F5F5F6" width="344.3" height="344.3"/>
	<rect id="Text_Background" x="52.7" y="393.4" fill="#5C5D60" width="344.3" height="206.5"/>
	<rect id="Draw_Background_2_" x="490.1" y="49.1" fill="#F5F5F6" width="344.3" height="344.3"/>
	<rect id="Text_Background_2_" x="490.1" y="393.4" fill="#5C5D60" width="344.3" height="206.5"/>
</g>
<g id="Drawing">
	<path fill="#8E99F3" d="M782.6,236.8H677c-2.5,0-4.6-2.1-4.6-4.6V207c0-2.5,2.1-4.6,4.6-4.6h105.6c2.5,0,4.6,2.1,4.6,4.6v25.2
		C787.2,234.8,785.1,236.8,782.6,236.8z"/>
	<g>
		<g>
			<line fill="none" stroke="#8E99F3" stroke-width="3.2385" stroke-miterlimit="10" x1="224.8" y1="113.1" x2="224.8" y2="114.7"/>
			
				<line fill="none" stroke="#8E99F3" stroke-width="3.2385" stroke-miterlimit="10" stroke-dasharray="3.251,3.251" x1="224.8" y1="118" x2="224.8" y2="324.4"/>
			<line fill="none" stroke="#8E99F3" stroke-width="3.2385" stroke-miterlimit="10" x1="224.8" y1="326.1" x2="224.8" y2="327.7"/>
		</g>
	</g>
	<path fill="#8A8C8E" d="M277.6,130.3H172c-2.5,0-4.6-2.1-4.6-4.6v-25.2c0-2.5,2.1-4.6,4.6-4.6h105.6c2.5,0,4.6,2.1,4.6,4.6v25.2
		C282.2,128.3,280.1,130.3,277.6,130.3z"/>
	<path fill="#8A8C8E" d="M277.6,184H172c-2.5,0-4.6-2.1-4.6-4.6v-25.2c0-2.5,2.1-4.6,4.6-4.6h105.6c2.5,0,4.6,2.1,4.6,4.6v25.2
		C282.2,181.9,280.1,184,277.6,184z"/>
	<path fill="#8A8C8E" d="M277.6,237.6H172c-2.5,0-4.6-2.1-4.6-4.6v-25.2c0-2.5,2.1-4.6,4.6-4.6h105.6c2.5,0,4.6,2.1,4.6,4.6V233
		C282.2,235.6,280.1,237.6,277.6,237.6z"/>
	<path fill="#8A8C8E" d="M277.6,291.3H172c-2.5,0-4.6-2.1-4.6-4.6v-25.2c0-2.5,2.1-4.6,4.6-4.6h105.6c2.5,0,4.6,2.1,4.6,4.6v25.2
		C282.2,289.2,280.1,291.3,277.6,291.3z"/>
	<path fill="#8A8C8E" d="M277.6,344.9H172c-2.5,0-4.6-2.1-4.6-4.6v-25.2c0-2.5,2.1-4.6,4.6-4.6h105.6c2.5,0,4.6,2.1,4.6,4.6v25.2
		C282.2,342.8,280.1,344.9,277.6,344.9z"/>
	<g>
		<g>
			<line fill="none" stroke="#8E99F3" stroke-width="3.2385" stroke-miterlimit="10" x1="600.2" y1="140.3" x2="600.2" y2="141.9"/>
			
				<line fill="none" stroke="#8E99F3" stroke-width="3.2385" stroke-miterlimit="10" stroke-dasharray="3.2314,3.2314" x1="600.2" y1="145.1" x2="600.2" y2="298.6"/>
			<line fill="none" stroke="#8E99F3" stroke-width="3.2385" stroke-miterlimit="10" x1="600.2" y1="300.2" x2="600.2" y2="301.8"/>
		</g>
	</g>
	<path fill="#8A8C8E" d="M653,153.8H547.5c-2.5,0-4.6-2.1-4.6-4.6V124c0-2.5,2.1-4.6,4.6-4.6H653c2.5,0,4.6,2.1,4.6,4.6v25.2
		C657.6,151.8,655.6,153.8,653,153.8z"/>
	<path fill="#8A8C8E" d="M653,206.7H547.5c-2.5,0-4.6-2.1-4.6-4.6v-25.2c0-2.5,2.1-4.6,4.6-4.6H653c2.5,0,4.6,2.1,4.6,4.6v25.2
		C657.6,204.6,655.6,206.7,653,206.7z"/>
	<path fill="#8A8C8E" d="M653,263H547.5c-2.5,0-4.6-2.1-4.6-4.6v-25.2c0-2.5,2.1-4.6,4.6-4.6H653c2.5,0,4.6,2.1,4.6,4.6v25.2
		C657.6,260.9,655.6,263,653,263z"/>
	<path fill="#8A8C8E" d="M653,315.8H547.5c-2.5,0-4.6-2.1-4.6-4.6V286c0-2.5,2.1-4.6,4.6-4.6H653c2.5,0,4.6,2.1,4.6,4.6v25.2
		C657.6,313.7,655.6,315.8,653,315.8z"/>
	<g>
		<g>
			<line fill="none" stroke="#8E99F3" stroke-width="3.2385" stroke-miterlimit="10" x1="600.1" y1="218" x2="601.7" y2="218"/>
			
				<line fill="none" stroke="#8E99F3" stroke-width="3.2385" stroke-miterlimit="10" stroke-dasharray="3.299,3.299" x1="605" y1="218" x2="741.9" y2="218"/>
			<line fill="none" stroke="#8E99F3" stroke-width="3.2385" stroke-miterlimit="10" x1="743.5" y1="218" x2="745.2" y2="218"/>
		</g>
	</g>
</g>
<g id="Text">
	<text transform="matrix(1 0 0 1 139.5597 466.1431)"><tspan x="0" y="0" fill="#8E99F3" font-family="'Arial Black','Arial Bold'" font-size="19.431px">SYNCHRONOUS</tspan><tspan x="-37.9" y="46.6" fill="#FFFFFF" font-family="Arial" font-size="19.431px">Code executed in sequence,</tspan><tspan x="-42.2" y="70" fill="#FFFFFF" font-family="Arial" font-size="19.431px">one statement after the other.</tspan></text>
	<text transform="matrix(1 0 0 1 569.3584 443.5124)"><tspan x="0" y="0" fill="#8E99F3" font-family="'Arial Black','Arial Bold'" font-size="19.431px">ASYNCHRONOUS</tspan><tspan x="-35.7" y="46.6" fill="#FFFFFF" font-family="Arial" font-size="19.431px">Statements can go outside of </tspan><tspan x="-21.1" y="70" fill="#FFFFFF" font-family="Arial" font-size="19.431px">the main flow, allowing the</tspan><tspan x="-30.8" y="93.3" fill="#FFFFFF" font-family="Arial" font-size="19.431px">program to progress with the</tspan><tspan x="51.2" y="116.6" fill="#FFFFFF" font-family="Arial" font-size="19.431px">next task.</tspan></text>
</g>
</svg>
